<?xml version="1.0" standalone="no"?>
<!DOCTYPE svg PUBLIC "-//W3C//DTD SVG 20010904//EN"
 "http://www.w3.org/TR/2001/REC-SVG-20010904/DTD/svg10.dtd">
<svg version="1.0" xmlns="http://www.w3.org/2000/svg"
 width="233.000000pt" height="217.000000pt" viewBox="0 0 233.000000 217.000000"
 preserveAspectRatio="xMidYMid meet">

<g transform="translate(0.000000,217.000000) scale(0.100000,-0.100000)"
fill="#000000" stroke="none">
<path d="M1978 2078 l-3 -93 -87 -3 -88 -3 0 -74 0 -74 88 -3 87 -3 3 -657 2
-658 165 0 165 0 0 75 0 74 -87 3 -88 3 -3 753 -2 752 -75 0 -74 0 -3 -92z"/>
<path d="M768 1278 l-3 -433 -92 -3 -93 -3 0 -74 0 -74 93 -3 92 -3 3 -137 3
-138 74 0 75 0 0 568 c0 428 3 571 12 580 7 7 43 12 90 12 l78 0 0 70 0 70
-165 0 -165 0 -2 -432z"/>
<path d="M1370 1040 l0 -650 -95 0 -95 0 0 -85 0 -85 180 0 180 0 0 560 0 560
90 0 90 0 0 85 0 85 -90 0 -90 0 0 90 0 90 -85 0 -85 0 0 -650z"/>
<path d="M198 1383 l-3 -128 -87 -3 -88 -3 0 -74 0 -74 88 -3 87 -3 3 -547 2
-548 165 0 165 0 0 80 0 79 -87 3 -88 3 -3 673 -2 672 -75 0 -74 0 -3 -127z"/>
</g>
</svg>
